<svg xmlns="http://www.w3.org/2000/svg" viewBox="0 0 120.79 120.79">
  <defs>
    <style>
      .cls-1 {
        fill: #49b7e9;
      }

      .cls-2 {
        fill: #fff;
      }
    </style>
  </defs>
  <g id="Layer_2" data-name="Layer 2">
    <g id="Layer_1-2" data-name="Layer 1">
      <g>
        <rect class="cls-1" width="120.79" height="120.79"/>
        <path class="cls-2" d="M77.32,41.86H62.79V80.32H77.32q5.75,0,9.84-5.81a23.68,23.68,0,0,0,4.1-14,21.28,21.28,0,0,0-4.1-13.19Q83.07,41.86,77.32,41.86Z"/>
        <path class="cls-2" d="M0,0V120.79H120.79V0ZM89.32,76.52q-5,6.65-12,6.64H59.81V41.86H36v17H57.56v2.76H36V83.16H33V39H77.32q7,0,12,6.33A23.88,23.88,0,0,1,94.24,60.5,26.13,26.13,0,0,1,89.32,76.52Z"/>
      </g>
    </g>
  </g>
</svg>
